<?xml version="1.0" encoding="UTF-8" standalone="no"?>
<!-- Created with Inkscape (http://www.inkscape.org/) -->

<svg
   xmlns:dc="http://purl.org/dc/elements/1.1/"
   xmlns:cc="http://creativecommons.org/ns#"
   xmlns:rdf="http://www.w3.org/1999/02/22-rdf-syntax-ns#"
   xmlns:svg="http://www.w3.org/2000/svg"
   xmlns="http://www.w3.org/2000/svg"
   xmlns:sodipodi="http://sodipodi.sourceforge.net/DTD/sodipodi-0.dtd"
   xmlns:inkscape="http://www.inkscape.org/namespaces/inkscape"
   width="80"
   height="80"
   id="svg3022"
   version="1.1"
   inkscape:version="0.48.5 r10040"
   sodipodi:docname="New document 5">
  <defs
     id="defs3024" />
  <sodipodi:namedview
     id="base"
     pagecolor="#ffffff"
     bordercolor="#666666"
     borderopacity="1.0"
     inkscape:pageopacity="0.0"
     inkscape:pageshadow="2"
     inkscape:zoom="7.9195959"
     inkscape:cx="70.280151"
     inkscape:cy="53.225116"
     inkscape:document-units="px"
     inkscape:current-layer="layer1"
     showgrid="false"
     inkscape:window-width="1920"
     inkscape:window-height="1027"
     inkscape:window-x="-8"
     inkscape:window-y="-8"
     inkscape:window-maximized="1" />
  <metadata
     id="metadata3027">
    <rdf:RDF>
      <cc:Work
         rdf:about="">
        <dc:format>image/svg+xml</dc:format>
        <dc:type
           rdf:resource="http://purl.org/dc/dcmitype/StillImage" />
        <dc:title></dc:title>
      </cc:Work>
    </rdf:RDF>
  </metadata>
  <g
     inkscape:label="Layer 1"
     inkscape:groupmode="layer"
     id="layer1"
     transform="translate(0,-972.3622)">
    <path
       style="fill:#ffffff"
       d="m 49.90439,1049.5509 c 0,-0.084 0.240451,-0.2519 0.534341,-0.3736 1.125893,-0.4664 2.77153,-1.8472 3.401199,-2.8538 0.708717,-1.133 0.669794,-1.3431 -0.352633,-1.9032 -0.623309,-0.3414 -0.85806,-0.7138 -1.092168,-1.7325 -0.06565,-0.2858 -0.642231,-1.2602 -1.281224,-2.1652 -2.318644,-3.284 -2.941673,-4.3399 -2.941673,-4.9854 0,-0.4567 -0.330539,-1.1495 -1.311193,-2.7479 -1.376065,-2.243 -1.705847,-2.5925 -2.605251,-2.7612 -0.998258,-0.1873 -1.688836,0.5439 -0.993736,1.0522 0.436889,0.3194 0.143148,0.6313 -0.400098,0.4247 -0.689112,-0.2619 -0.909208,0.038 -0.842285,1.1466 0.05025,0.8332 0.01837,0.9424 -0.275338,0.9424 -0.182713,0 -0.476982,-0.09 -0.653937,-0.201 -0.261194,-0.1631 -0.420602,-0.1305 -0.847161,0.1733 -0.288988,0.2058 -0.718792,0.3741 -0.955116,0.3741 -0.267183,0 -0.536986,0.1638 -0.713422,0.4331 -0.314879,0.4805 -0.877072,0.575 -1.031249,0.1731 -0.05486,-0.1428 -0.266384,-0.2598 -0.470104,-0.2598 -0.282225,0 -0.342319,-0.072 -0.252429,-0.303 0.06491,-0.1668 0.131689,-0.3811 0.148444,-0.4764 0.03485,-0.1982 -0.510056,-0.1978 -0.980521,8e-4 -0.25841,0.1091 -0.307186,0.065 -0.259819,-0.235 0.04061,-0.2575 -0.169747,-0.5782 -0.694878,-1.0592 -0.622543,-0.5701 -0.755977,-0.8032 -0.769281,-1.3438 -0.0091,-0.3701 -0.13173,-0.7407 -0.282497,-0.8539 -0.232733,-0.1746 -0.212122,-0.2441 0.163025,-0.5492 0.422447,-0.3436 0.424499,-0.3577 0.126301,-0.8661 -0.405314,-0.691 -0.383014,-0.8746 0.129909,-1.0696 0.238169,-0.091 0.433041,-0.2815 0.433041,-0.4243 0,-0.1428 0.224397,-0.3757 0.498656,-0.5175 0.274259,-0.1419 0.54463,-0.3777 0.600819,-0.5241 0.06549,-0.1706 0.323916,-0.2663 0.719287,-0.2663 0.402092,0 0.65364,-0.095 0.721922,-0.273 0.05767,-0.1502 0.295826,-0.3458 0.529308,-0.4345 l 0.424508,-0.1615 -0.327722,-0.5614 c -0.353441,-0.6056 -2.949911,-2.9376 -3.729728,-3.3498 -0.261985,-0.1386 -0.476339,-0.3688 -0.476339,-0.5115 0,-0.3434 -0.505757,-0.5201 -2.731874,-0.9544 -1.25661,-0.2452 -2.391169,-0.6082 -3.50389,-1.121 -0.905048,-0.4171 -2.364735,-0.9636 -3.24375,-1.2144 l -1.598204,-0.4561 -0.987483,0.5349 c -1.125086,0.6093 -2.707951,0.7598 -2.893976,0.275 -0.05989,-0.156 -0.326832,-0.2621 -0.668089,-0.2655 -0.312614,0 -0.751661,-0.1585 -0.975653,-0.3452 -0.355772,-0.2964 -0.388303,-0.4195 -0.257298,-0.9734 0.241613,-1.0216 0.729806,-1.2521 2.916366,-1.377 1.660268,-0.095 2.016781,-0.064 2.771448,0.2364 1.175394,0.4684 2.952752,0.8327 6.149152,1.2603 2.272792,0.3041 2.827184,0.4392 3.612381,0.8802 0.846634,0.4756 3.206796,1.2335 3.835879,1.232 0.142909,-4e-4 0.506185,-0.1023 0.807299,-0.2265 0.541516,-0.2233 0.55772,-0.2149 1.490874,0.7719 0.836502,0.8846 1.010005,0.9912 1.531116,0.9415 0.485039,-0.046 0.643978,-0.1713 0.909777,-0.7155 0.180653,-0.3697 0.62573,-0.851 1.013637,-1.0958 0.606537,-0.3829 0.676871,-0.4935 0.571988,-0.8997 -0.318636,-1.2337 -0.296271,-1.914 0.08522,-2.5928 l 0.380674,-0.6773 -0.450629,-0.4506 c -0.496999,-0.4971 -0.548724,-0.8782 -0.253047,-1.8651 0.191948,-0.6407 0.170052,-0.702 -0.767774,-2.1497 -0.87498,-1.3508 -0.948782,-1.5378 -0.788426,-1.9978 0.151056,-0.4333 0.09869,-0.652 -0.358127,-1.4954 -0.384785,-0.7104 -0.53505,-1.2196 -0.53505,-1.813 0,-0.4538 -0.08114,-0.8752 -0.180266,-0.9365 -0.09914,-0.061 -0.131911,-0.2637 -0.07282,-0.4499 0.0692,-0.2179 -0.07513,-0.6293 -0.404909,-1.1547 -0.281789,-0.4488 -0.836864,-1.44864 -1.233487,-2.22183 l -0.721132,-1.40569 -0.878126,-0.10404 c -0.990358,-0.11731 -1.902597,-0.70985 -2.312161,-1.50183 -0.382685,-0.74003 -0.325095,-0.97023 0.346611,-1.38537 0.701831,-0.43375 0.723092,-0.55763 0.271227,-1.58022 -0.184261,-0.41701 -0.387577,-1.1869 -0.451807,-1.71087 -0.09354,-0.76313 -0.323537,-1.27021 -1.155903,-2.54844 l -1.039133,-1.59574 0.119702,-1.35227 c 0.137463,-1.55285 -0.01549,-1.81833 -1.166398,-2.02459 -0.821945,-0.1473 -1.007377,-0.43417 -1.746022,-2.70114 -0.32549,-0.99897 -0.728818,-2.10038 -0.896283,-2.44759 -0.39523,-0.81943 -0.239743,-1.43323 0.552291,-2.18021 1.308096,-1.23369 2.994032,-1.68927 3.68681,-0.99627 0.225392,0.22548 0.464962,0.93847 0.697398,2.07561 0.194741,0.95269 0.511548,2.20863 0.704006,2.79099 0.28426,0.86012 0.318282,1.19968 0.18128,1.80943 -0.09276,0.41284 -0.136813,0.80212 -0.09791,0.86508 0.03888,0.0629 0.916861,0.15457 1.950994,0.20358 1.034141,0.049 2.06923,0.18619 2.300199,0.30483 0.494026,0.25376 1.892267,1.56798 1.892267,1.77855 0,0.08 -0.189188,0.31711 -0.420421,0.52689 -0.231225,0.20978 -0.61573,0.93668 -0.854443,1.61531 -0.492494,1.40011 -0.501893,1.36727 0.804432,2.81014 0.806919,0.89125 1.846745,3.05107 2.00645,4.16758 0.0905,0.63265 0.207566,0.83793 0.579566,1.01622 0.567523,0.27201 1.175509,1.01372 1.175509,1.43409 0,0.56701 0.202764,0.84907 1.065692,1.48255 0.832984,0.61149 1.873938,2.09985 1.877348,2.68435 8.24e-4,0.1533 0.234479,0.7379 0.519077,1.2991 0.284605,0.5612 0.518442,1.2347 0.519645,1.4968 8.23e-4,0.2659 0.0984,0.4763 0.22003,0.4763 0.143822,0 0.354165,-0.7798 0.619074,-2.2951 0.573989,-3.28326 0.571395,-3.25838 0.56875,-5.45258 -0.0016,-1.37338 0.124308,-2.67005 0.403699,-4.1558 0.348432,-1.85289 0.47858,-2.23722 0.916407,-2.70623 0.383607,-0.41092 0.560719,-0.83426 0.713356,-1.70512 0.315835,-1.8019 0.825759,-3.26041 1.492761,-4.26962 0.336059,-0.50848 0.611018,-1.03282 0.611018,-1.16521 0,-0.1324 0.191066,-0.3659 0.424581,-0.51891 0.306766,-0.201 0.457994,-0.50101 0.544993,-1.08116 0.08586,-0.57255 0.262248,-0.92742 0.614716,-1.2367 0.271862,-0.23856 0.494298,-0.51443 0.494298,-0.61306 0,-0.0986 0.200523,-0.55602 0.445612,-1.01641 0.352435,-0.66206 0.422094,-0.97631 0.333118,-1.50293 -0.10471,-0.61981 -0.07447,-0.6855 0.437416,-0.95021 0.46703,-0.24151 0.67757,-0.25374 1.397022,-0.0811 0.465918,0.11177 1.052099,0.36445 1.302626,0.56151 0.332005,0.26116 0.95482,0.42228 2.297118,0.59426 2.023445,0.25926 3.159751,0.77371 3.654032,1.65433 0.351282,0.62586 0.178536,0.76838 -1.508232,1.24436 -1.558235,0.43971 -2.549894,1.10089 -2.896958,1.93152 -0.129777,0.31061 -0.398451,0.6517 -0.597055,0.75799 -0.239208,0.12802 -0.361093,0.3637 -0.361093,0.6982 0,0.28471 -0.122009,0.57322 -0.279737,0.66149 -0.309253,0.17307 -0.493548,1.86911 -0.221373,2.03732 0.312737,0.19328 0.140305,0.82525 -0.38995,1.42919 l -0.544638,0.62029 0.101711,2.08741 c 0.147686,3.031 -0.286525,7.07926 -0.906176,8.44854 -0.27697,0.61206 -0.359932,1.099 -0.329172,1.93203 0.02323,0.6287 -0.04317,1.2154 -0.152481,1.347 -0.11331,0.1366 -0.217633,1.1672 -0.251531,2.485 -0.06335,2.462 -0.0771,2.5018 -1.5957,4.6172 -0.448611,0.625 -0.606248,1.0541 -0.699985,1.9053 -0.185943,1.689 -0.592055,3.486 -0.819581,3.6266 -0.11266,0.07 -0.386054,0.058 -0.607526,-0.026 -0.903779,-0.3436 -1.240496,0.2548 -0.912898,1.6226 0.280726,1.1722 0.586873,1.8994 1.290022,3.0646 0.316206,0.524 0.632428,1.1865 0.702721,1.4723 0.179475,0.7298 1.852857,3.1335 2.85997,4.1083 0.464387,0.4495 0.803378,0.9172 0.753317,1.0394 -0.05009,0.1221 -0.633169,0.636 -1.295805,1.142 -0.662635,0.5059 -1.204794,1.0226 -1.204794,1.148 0,0.1254 -0.116918,0.325 -0.259827,0.4437 -0.281368,0.2334 -0.348028,1.206 -0.115913,1.6911 0.07917,0.1655 0.27402,0.5605 0.433042,0.8778 0.356727,0.7119 0.362699,0.9651 0.02933,1.2418 -0.1429,0.1186 -0.259818,0.4304 -0.259818,0.6928 0,0.2625 -0.116919,0.5743 -0.259827,0.6929 -0.356785,0.2961 -0.32876,0.5259 0.173775,1.425 0.238475,0.4267 0.579624,1.2002 0.758103,1.719 0.178487,0.5188 0.490022,1.2677 0.692308,1.6641 0.632222,1.2393 0.387413,3.8309 -0.449591,4.7595 -0.206397,0.2289 -0.247396,0.5283 -0.172177,1.2571 0.07916,0.7667 0.221504,1.1 0.717359,1.6793 0.340251,0.3975 0.618638,0.867 0.618638,1.0434 0,0.4901 -0.487922,0.5733 -0.929366,0.1586 -0.215647,-0.2027 -0.474667,-0.3684 -0.575604,-0.3684 -0.100929,0 -0.592903,0.6236 -1.093263,1.3857 l -0.90976,1.3857 -1.796923,0 c -0.988307,0 -1.796923,-0.068 -1.796923,-0.1522 z"
       id="path3007"
       inkscape:connector-curvature="0" />
  </g>
</svg>
